<svg width="16" height="16" viewBox="0 0 16 16" xmlns="http://www.w3.org/2000/svg">
  <path fill-rule="evenodd" clip-rule="evenodd" d="M14.491 1c-3.598.004-6.654 1.983-8.835 4H1.5l-.5.5v3l.147.354.991.991.001.009 4 4 .009.001.999.999L7.5 15h3l.5-.5v-4.154c2.019-2.178 3.996-5.233 3.992-8.846l-.001-.5h-.5zM2 6h2.643a23.828 23.828 0 0 0-2.225 3H2V6zm5 8v-2.643a23.886 23.886 0 0 0 3-2.225V11h-3zm.642-3.642l.357.357.357-.357a22.93 22.93 0 0 0 6.449-9.091 22.926 22.926 0 0 0-9.091 6.45l-.357.356.357.357a22.93 22.93 0 0 0 1.928 1.928z" fill="#424242"/>
  <circle cx="11.5" cy="4.5" r="1" fill="#424242"/>
</svg>
